<?xml version="1.0" encoding="UTF-8"?><svg id="Layer_1" xmlns="http://www.w3.org/2000/svg" xmlns:xlink="http://www.w3.org/1999/xlink" viewBox="0 0 3502.5 3502.5"><defs><clipPath id="clippath"><path d="M2206.6,1012.9c0,100-44.7,189.5-115.2,249.8-39.8,34-75.2,72.4-105.3,114.8l-1.3-.9c-14.6,19.1-103.1,16.8-206.2-6.3-103.6-23.2-185-59-189.4-82.5,0-1,0-1.9-.1-2.8v-.2c-3.1-63.2-12.3-125.9-28.6-187.1-7.7-28.8-11.6-59.1-11-90.5,3-178.9,151.1-323.8,330-323,180.8.8,327.1,147.6,327.1,328.6Z" fill="none" stroke="#335c67" stroke-miterlimit="10"/></clipPath></defs><rect width="3502.5" height="3502.5" rx="407.8" ry="407.8" fill="#335c67"/><ellipse cx="1715.3" cy="2950.6" rx="943.5" ry="71.1" fill="#1a2e33"/><path d="M355.7,1968.3l807.1-828,492.9,561.7s1159.6-250.4,1495-136.6l-634.4,988.9-1353.5-21.3-807.1-564.6Z" fill="#fff" stroke="#335c67" stroke-miterlimit="10"/><path d="M355.7,1968.3l807.1-828,492.9,561.7s1159.6-250.4,1495-136.6l-634.4,988.9-1353.5-21.3-807.1-564.6Z" fill="#9e2a2b"/><path d="M2516.2,2572.5h-.3l-1353.5-21.3c-3.6,0-7.2-1.2-10.2-3.3l-807.1-564.6c-4.4-3.1-7.2-7.9-7.7-13.2-.5-5.3,1.4-10.6,5.1-14.4l807.1-828c3.5-3.6,8.5-5.6,13.5-5.5,5.1.1,9.9,2.4,13.2,6.2l485.9,553.6c124.1-26.4,1171.1-243.5,1494.2-133.8,5.3,1.8,9.5,5.9,11.3,11.2,1.9,5.3,1.2,11.1-1.9,15.8l-634.4,988.9c-3.4,5.2-9.1,8.4-15.3,8.4ZM1168.6,2514.8l1337.8,21.1,615.9-960.1c-353.8-93.6-1451.5,141.5-1462.8,143.9-6.5,1.4-13.2-.8-17.5-5.8l-479.9-546.9-778.4,798.6,784.9,549.1Z" fill="#1a2e33"/><polygon points="355.7 1968.3 355.7 2132.2 1162.8 2626.2 1162.8 2468.6 355.7 1968.3" fill="#fdf2b0" stroke="#335c67" stroke-miterlimit="10"/><g opacity=".3"><path d="M1099,2429.1h0c0,37.8-41.4,61-73.7,41.3l-669.7-409.9v71.8l807.1,494v-157.7l-63.7-39.5Z" fill="#00007f" stroke="#335c67" stroke-miterlimit="10"/></g><path d="M1162.8,2644.5c-3.3,0-6.6-.9-9.5-2.7l-807.1-494c-5.4-3.3-8.7-9.2-8.7-15.5v-163.9c0-6.6,3.6-12.7,9.4-15.9,5.8-3.2,12.8-3.1,18.5.4l807.1,500.3c5.4,3.3,8.6,9.2,8.6,15.5v157.7c0,6.6-3.6,12.7-9.3,15.9-2.8,1.6-5.8,2.3-8.9,2.3ZM373.9,2122l770.7,471.7v-115l-770.7-477.7v121Z" fill="#1a2e33"/><polygon points="1162.8 2468.6 1162.8 2626.2 2516.2 2639.9 2516.2 2468.6 1162.8 2468.6" fill="#fdf2b0" stroke="#335c67" stroke-miterlimit="10"/><g opacity=".3"><path d="M1359.8,2560.9c-61.6-.6-114-38.7-136-92.4h-61.1v157.7l1353.5,13.7v-67.3l-1156.5-11.7Z" fill="#00007f" stroke="#335c67" stroke-miterlimit="10"/></g><path d="M2516.2,2658.1h-.2l-1353.5-13.7c-10-.1-18-8.2-18-18.2v-157.7c0-10.1,8.2-18.2,18.2-18.2h1353.5c10.1,0,18.2,8.2,18.2,18.2v171.3c0,4.9-1.9,9.5-5.4,12.9-3.4,3.4-8,5.3-12.8,5.3ZM1181,2608.2l1317.1,13.3v-134.7h-1317.1v121.4Z" fill="#1a2e33"/><polygon points="3150.7 1565.3 2516.2 2468.6 2516.2 2639.9 3150.7 1773.8 3150.7 1565.3" fill="#fdf2b0" stroke="#335c67" stroke-miterlimit="10"/><polygon points="3150.7 1565.3 2516.2 2468.6 2516.2 2639.9 3150.7 1773.8 3150.7 1565.3" fill="#fdf2b0" stroke="#335c67" stroke-miterlimit="10"/><g opacity=".3"><polygon points="2516.2 2639.9 3150.7 1773.8 3150.7 1696.4 2516.2 2562.5 2516.2 2639.9" fill="#00007f" stroke="#335c67" stroke-miterlimit="10"/></g><path d="M2516.2,2658.1c-1.9,0-3.8-.3-5.7-.9-7.5-2.4-12.6-9.4-12.6-17.3v-171.3c0-3.7,1.2-7.4,3.3-10.5l634.4-903.3c4.6-6.5,12.8-9.3,20.4-6.9,7.6,2.4,12.7,9.4,12.7,17.4v208.5c0,3.9-1.2,7.6-3.5,10.8l-634.4,866.1c-3.5,4.8-9,7.5-14.7,7.5ZM2534.5,2474.3v109.9l598-816.3v-144.9l-598,851.4Z" fill="#1a2e33"/><path d="M1162.8,2468.6l506.5-791.9s28.4-464.6-559.6-597.6l-718.3,885.4s446.2,37.9,771.4,504.1Z" fill="#fff" stroke="#335c67" stroke-miterlimit="10"/><path d="M1162.8,2468.6l506.5-791.9s28.4-464.6-559.6-597.6l-718.3,885.4s446.2,37.9,771.4,504.1Z" fill="#e09f3e"/><path d="M1162.8,2486.8c-5.9,0-11.5-2.9-14.9-7.8-165.1-236.7-362.3-359-498.6-420-148-66.1-258.3-76.3-259.4-76.4-6.7-.6-12.6-4.8-15.2-11-2.6-6.2-1.6-13.4,2.6-18.6l718.3-885.4c4.4-5.4,11.4-7.8,18.2-6.3,310.7,70.3,450.2,233.6,512.6,358.3,67.8,135.6,61.5,253.3,61.2,258.2-.2,3.1-1.2,6.1-2.8,8.7l-506.5,791.9c-3.3,5.1-8.9,8.3-15,8.4-.1,0-.2,0-.4,0ZM425.8,1950.9c44.6,7.6,130.7,27,236.7,74.2,136.7,60.8,332.4,181.2,499.4,411l489.3-764.9c.4-22.2-1.5-124-58.4-236.8-84.5-167.6-244.7-280.2-476.2-334.9l-690.8,851.5Z" fill="#1a2e33"/><path d="M1162.8,2468.6l506.5-791.9s28.4-464.6-559.6-597.6l-738,798.9s590.4,15.2,791.1,590.6Z" fill="#fff" stroke="#335c67" stroke-miterlimit="10"/><path d="M1176.5,2468.6l492.7-791.9s27.6-464.6-544.4-597.6l-718,798.9s574.4,15.2,769.6,590.6Z" fill="#e09f3e"/><path d="M1162.8,2486.8c-.7,0-1.4,0-2.1-.1-6.9-.8-12.8-5.5-15.1-12.1-81.3-233.2-236-401.4-459.7-499.9-167.6-73.8-313.3-78.5-314.7-78.5-7.1-.2-13.5-4.5-16.3-11.1-2.8-6.6-1.5-14.2,3.4-19.4l738-798.9c4.4-4.8,11-6.8,17.4-5.4,310.7,70.3,450.2,233.6,512.6,358.3,67.8,135.6,61.5,253.3,61.2,258.2-.2,3.1-1.2,6.1-2.8,8.7l-506.5,791.9c-3.4,5.3-9.2,8.4-15.3,8.4ZM410.5,1862.7c55.7,6,165.4,24.1,288.7,78.1,154.6,67.8,358.3,207,467.9,487.1l484.1-756.8c.4-22.2-1.5-124-58.4-236.8-84.6-167.8-245-280.5-477-335.1l-705.3,763.5Z" fill="#1a2e33"/><path d="M1162.8,2468.6l506.5-791.9s28.4-464.6-559.6-597.6l-702.7,724.2s650.8-19.4,755.9,665.4Z" fill="#fff" stroke="#335c67" stroke-miterlimit="10"/><path d="M1187.2,2468.6l482.1-791.9s27-464.6-532.6-597.6l-668.8,724.2s619.4-19.4,719.4,665.4Z" fill="#e09f3e"/><path d="M1162.8,2486.8c-1.2,0-2.5-.1-3.8-.4-7.4-1.6-13.1-7.6-14.2-15.1-42.5-277-179-470.5-405.7-575.1-170-78.5-330.1-74.9-331.7-74.8-7.5.2-14.2-4.1-17.2-10.9-3-6.8-1.6-14.7,3.6-20l702.7-724.2c4.4-4.6,10.9-6.5,17.1-5.1,310.7,70.3,450.2,233.6,512.6,358.3,67.8,135.6,61.5,253.3,61.2,258.2-.2,3.1-1.2,6.1-2.8,8.7l-506.5,791.9c-3.4,5.3-9.2,8.4-15.3,8.4ZM448.8,1786.2c60.7,3.8,178.6,18.8,304.2,76.4,104.7,48.1,192.7,116,261.5,201.8,77.4,96.5,130.5,215.7,158.1,355l478.6-748.3c.4-22.2-1.5-124-58.4-236.8-84.6-167.8-245.2-280.6-477.3-335.2l-666.7,687Z" fill="#1a2e33"/><path d="M1718.2,1627.8l-555.4,840.8c239.4-138.3,633.3-244.2,1289.7-83.7l625.8-819.7s-723.8-403.2-1360.1,62.6Z" fill="#fff" stroke="#335c67" stroke-miterlimit="10"/><path d="M1718.2,1627.8l-555.4,840.8c234.4-135.4,602.5-275.5,1234-130.5,25.1,5.8,51.3-3.3,67.6-23.3l613.9-749.6s-723.8-403.2-1360.1,62.6Z" fill="#e09f3e"/><path d="M1162.8,2486.8c-4.9,0-9.7-2-13.3-5.7-5.8-6.1-6.6-15.5-1.9-22.5l555.4-840.8c1.2-1.8,2.7-3.4,4.4-4.7,147.4-107.9,311.8-178.4,488.5-209.5,141.2-24.9,290.5-24.8,443.8.3,260.6,42.6,439.9,141.2,447.4,145.4,4.6,2.6,7.9,7,9,12.2,1.1,5.2-.1,10.6-3.4,14.8l-625.8,819.7c-4.4,5.8-11.8,8.4-18.8,6.6-529-129.4-958.4-101.9-1276.3,81.7-2.8,1.6-6,2.4-9.1,2.4ZM1731.6,1640.6l-514,778.1c316.4-156.1,728.9-174.4,1227.7-54.2l605.4-793c-52.5-26.1-210.6-98.1-418-131.8-233.3-37.9-578.7-33.8-901.1,200.9Z" fill="#1a2e33"/><path d="M1718.2,1627.8l-527.3,798.3c121.8-158.6,570.3-295.8,1226.7-135.2l607.1-798.4s-670.2-330.4-1306.5,135.3Z" fill="#fff" stroke="#335c67" stroke-miterlimit="10"/><g opacity=".3"><path d="M1698.3,1594.9l-381.6,577.7c-28.6,43.4,15.1,97.7,63.7,79.3,210.6-79.9,552.4-111.3,989.2-10,20.5,4.7,41.8-3,54.5-19.7l544.2-715.6c-1.2-34.3-10.1-61.1-23.7-82.3-161.4-251.2-1095.6,100-1224.2,149.2-7.4,7.2-14.7,14.3-22.1,21.5Z" fill="#e09f3e"/></g><path d="M1190.8,2444.3c-3.7,0-7.4-1.1-10.6-3.4-8-5.7-10-16.7-4.6-24.9l527.3-798.3c1.2-1.8,2.7-3.4,4.4-4.7,147.2-107.7,308.4-182,479.3-220.7,136.7-31,279.7-39.4,425.1-25,247.5,24.4,414,105.3,420.9,108.8,4.9,2.4,8.4,6.9,9.7,12.2,1.2,5.3,0,10.9-3.2,15.2l-607.1,798.4c-4.4,5.8-11.8,8.4-18.8,6.7-680.3-166.4-1102-9.4-1208,128.6-3.6,4.7-9,7.1-14.5,7.1ZM1731.6,1640.5l-454.9,688.7c81-49.2,192.8-87.1,324.1-108.4,164.6-26.8,438.1-39.6,809.5,49.6l586-770.6c-51.5-22-196.7-77.4-389.5-96.2-221.3-21.6-552.6,2-875.3,237.1Z" fill="#1a2e33"/><path d="M1718.2,1627.8l-518.3,780.3c121.8-158.6,539.3-375,1195.7-214.4l591.2-775.6s-632.3-256-1268.6,209.7Z" fill="#fff" stroke="#335c67" stroke-miterlimit="10"/><path d="M1199.8,2426.3c-3.7,0-7.4-1.1-10.6-3.4-8-5.7-10-16.7-4.6-24.9l518.3-780.3c1.2-1.8,2.7-3.3,4.4-4.6,332.8-243.6,664.5-288.3,884.1-283,238.2,5.8,395.5,68.5,402.1,71.1,5.3,2.1,9.2,6.6,10.7,12.1,1.5,5.5.4,11.3-3.1,15.9l-591.2,775.6c-4.4,5.8-11.8,8.4-18.8,6.7-285.6-69.9-558.6-74.2-789.3-12.6-254.9,68.1-361.1,185.9-387.6,220.4-3.6,4.7-9,7.1-14.5,7.1ZM1731.6,1640.6l-434.3,653.9c198.2-137.2,577-244,1091.1-121.3l568.9-746.3c-51.6-17.2-187.1-56.2-368.1-60.4-213-5.1-534.4,38.6-857.5,274.1Z" fill="#00007f" stroke="#335c67" stroke-miterlimit="10"/><path d="M1718.2,1627.8l-518.3,780.3c121.8-158.6,539.3-375,1195.7-214.4l591.2-775.6s-632.3-256-1268.6,209.7Z" fill="#fff" stroke="#335c67" stroke-miterlimit="10"/><path d="M1199.8,2426.3c-3.7,0-7.4-1.1-10.6-3.4-8-5.7-10-16.7-4.6-24.9l518.3-780.3c1.2-1.8,2.7-3.3,4.4-4.6,332.8-243.6,664.5-288.3,884.1-283,238.2,5.8,395.5,68.5,402.1,71.1,5.3,2.1,9.2,6.6,10.7,12.1,1.5,5.5.4,11.3-3.1,15.9l-591.2,775.6c-4.4,5.8-11.8,8.4-18.8,6.7-285.6-69.9-558.6-74.2-789.3-12.6-254.9,68.1-361.1,185.9-387.6,220.4-3.6,4.7-9,7.1-14.5,7.1ZM1731.6,1640.6l-434.3,653.9c198.2-137.2,577-244,1091.1-121.3l568.9-746.3c-51.6-17.2-187.1-56.2-368.1-60.4-213-5.1-534.4,38.6-857.5,274.1Z" fill="#1a2e33"/><path d="M1683.6,1606.1l-511.1,719.9c83.1-33.1,166.1-66.2,249.2-99.3,84.9-43.5,192.2-85.8,319.7-110.1,175.6-33.5,323.3-20,375.7-11.4,87.4,14.5,150.8,25,180.6,32.9,1.3.3,4.9,1.3,10,1.9,28.9,3.4,54.7-11,73.5-25.8l553.2-701.5s-623.4-236.2-1250.8,193.4Z" fill="#e09f3e"/><path d="M1718.2,1627.8l-518.3,780.3c121.8-158.6,459.3-479.7,1115.7-319.1l586.2-760.8s-547.3-166.1-1183.6,299.6Z" fill="#fff" stroke="#335c67" stroke-miterlimit="10"/><path d="M1199.8,2426.3c-3.7,0-7.4-1.1-10.6-3.4-8-5.7-10-16.7-4.6-24.9l518.3-780.3c1.2-1.8,2.7-3.3,4.4-4.6,332.1-243.1,640-312.5,839.7-327.9,217.3-16.7,354.2,23.9,359.9,25.6,5.7,1.7,10.2,6.2,12.1,11.9,1.8,5.7.7,11.9-2.9,16.7l-586.2,760.8c-4.4,5.7-11.8,8.3-18.8,6.6-651.2-159.3-984.1,165.5-1096.9,312.5-3.6,4.7-9,7.1-14.5,7.1ZM1731.6,1640.6l-405.2,610c59.7-49.8,133.7-98.8,223.5-138.4,219-96.5,474.2-111.2,758.5-43.7l561.9-729.3c-49.2-10.7-164.9-29.9-322.2-17.5-194.1,15.2-493.1,83-816.5,318.9Z" fill="#1a2e33"/><path d="M1199.9,2408.1l518.3-780.3s-2.6-591-581.1-620.5l-671.1,693.5s633.1-66.4,733.8,707.3Z" fill="#fff" stroke="#335c67" stroke-miterlimit="10"/><path d="M1199.9,2426.3c-1.4,0-2.8-.2-4.1-.5-7.4-1.7-13-7.9-13.9-15.4-40.8-313.5-173-525.2-392.8-629-164.4-77.6-319.5-62.8-321-62.6-7.6.7-14.9-3.3-18.3-10.2-3.3-6.9-2-15.1,3.3-20.6l671.1-693.5c3.7-3.8,8.7-5.9,14-5.5,307.7,15.7,454.2,189,522.9,331.6,73.9,153.4,75.4,300.8,75.4,307,0,3.6-1,7.1-3,10.2l-518.3,780.3c-3.4,5.2-9.2,8.1-15.2,8.1ZM510.5,1681.1c60.6.6,173,10.7,292.5,66.7,102.1,47.9,187.7,119.4,254.6,212.8,75.7,105.6,127.2,239.3,153.4,397.9l488.9-736c-1-27.6-9.2-156.9-72.2-287.1-92.7-191.5-255.3-295.6-483.2-309.5l-633.9,655.2Z" fill="#1a2e33"/><g opacity=".3"><path d="M1807.3,1995.6c-82.8,14.8-149.7-46-157.7-118,25.4-8.2,52.1-15.1,78-19,31.3-4.8,59.5-23,74.2-51.1,6.3-12,9.6-24.6,5.7-35.8-7.3-21.1-64.1-20.5-121.6-4.4l137.7-211.5c-34.8,22.1-69.9,46-105.3,71.9,0,0-.2-49.2-14.4-119.8l-167.5,256.5c-22.5-19.4-49.9-37-76.4-38.3-15.2-.8-28.8,3.4-40.4,10.6-41.2,25.7-40,85.9.3,113,10.3,6.9,22.4,16.2,34.9,28.2-109,108.7-290.5,111-403.7-4.4-149.6-152.6-368.7-214.2-520.8-239.1l-64.1,66.3s633.1-66.4,733.8,707.3c121.8-158.6,459.3-479.7,1115.7-319.1l38.6-50.1c-188.7-76.7-386.3-71.9-546.9-43.2Z" fill="#fff3b0"/></g><g opacity=".6"><g clip-path="url(#clippath)"><rect x="1548.9" y="683.4" width="657.7" height="712.2" fill="#fdf2ab" stroke="#335c67" stroke-miterlimit="10"/><path d="M1740.8,1400.6h-101.1v25.6c-33-9-65.1-19.5-96.5-31.5h.7v-716.3h667.7v722.2h-470.8Z" fill="#fdf2ab" stroke="#335c67" stroke-miterlimit="10"/><path d="M1743.2,1433.8c-67.8-11.2-132.9-29.1-194.7-52.8-7.7-3-15.4-6-23-9.2h18.4v-693.5h667.7v714.5h19.6c-30.4,10.5-61.3,19.6-92.8,27.1v-19.4h-395.3v33.2Z" fill="#fdf2b0" stroke="#335c67" stroke-miterlimit="10"/><path d="M1745.6,1419.4c-66.8-11.1-131-28.7-191.9-52-7.6-2.9-15.2-5.9-22.7-9h12.8v-680h667.7v700.6h14.9c-29.9,10.4-60.4,19.3-91.4,26.7v-5.2h-389.5v18.8Z" fill="#fdf2ab" stroke="#335c67" stroke-miterlimit="10"/><path d="M1748,1405c-65.8-10.9-129-28.2-189-51.2-15-5.7-29.8-11.9-44.4-18.3h29.3v-657.1h667.7v686.8h10.1c-29.5,10.2-59.5,19-90,26.3-122.1,29.3-252,35.2-383.7,13.4Z" fill="#fdf2b0" stroke="#335c67" stroke-miterlimit="10"/><path d="M1750.4,1390.6c-64.8-10.7-127.1-27.8-186.1-50.5-14.8-5.7-29.3-11.7-43.7-18h23.4v-643.7h667.7v673h5.3c-29,10-58.6,18.7-88.7,25.9-120.3,28.9-248.2,34.7-377.9,13.2Z" fill="#fdf2a8" stroke="#335c67" stroke-miterlimit="10"/><path d="M1752.8,1376.2c-63.9-10.6-125.1-27.4-183.3-49.7-14.5-5.6-28.9-11.5-43-17.7h17.5v-630.3h667.7v659.2h.5c-28.6,9.9-57.7,18.4-87.3,25.5-118.4,28.5-244.4,34.2-372.1,13Z" fill="#fdf2b0" stroke="#335c67" stroke-miterlimit="10"/><path d="M1755.2,1361.7c-62.9-10.4-123.2-27-180.4-48.9-14.3-5.5-28.4-11.3-42.4-17.5h11.5v-616.9h667.7v637.8h16.8c-7,2.6-14,5.1-21,7.6-28.1,9.7-56.8,18.1-85.9,25.1-116.6,28-240.6,33.6-366.3,12.8Z" fill="#fdf2b0" stroke="#335c67" stroke-miterlimit="10"/><path d="M1757.6,1347.3c-61.9-10.3-121.2-26.5-177.6-48.1-14.1-5.4-28-11.1-41.7-17.2h5.6v-603.6h667.7v616.2h32.1c-13.6,5.4-27.3,10.6-41.1,15.4-27.7,9.6-55.9,17.9-84.6,24.8-114.7,27.6-236.7,33.1-360.5,12.6Z" fill="#fdf2a9" stroke="#335c67" stroke-miterlimit="10"/><path d="M1760,1332.9c-60.9-10.1-119.3-26.1-174.7-47.4-13.9-5.3-27.5-11-41-16.9-6.7-3-13.4-6-20.1-9.2h19.8v-581h667.7v602.6h26.7c-13.3,5.4-26.8,10.4-40.4,15.1-27.2,9.4-55,17.6-83.2,24.4-112.9,27.1-232.9,32.6-354.7,12.4Z" fill="#fdf2b0" stroke="#335c67" stroke-miterlimit="10"/><path d="M1762.4,1318.5c-59.9-9.9-117.3-25.7-171.9-46.6-27.3-10.5-53.8-22.2-79.6-35.1h33v-558.3h667.7v589.1h21.2c-13.1,5.3-26.4,10.2-39.8,14.9-26.8,9.3-54.1,17.3-81.9,24-111,26.7-229.1,32-348.9,12.2Z" fill="#fdf2b0" stroke="#335c67" stroke-miterlimit="10"/><path d="M1764.7,1304.1c-58.9-9.8-115.4-25.3-169-45.8-26.8-10.3-52.9-21.8-78.2-34.6h26.4v-545.3h667.7v575.5h15.8c-12.9,5.2-25.9,10.1-39.1,14.6-26.3,9.1-53.2,17-80.5,23.6-109.2,26.2-225.3,31.5-343.1,12Z" fill="#fdf2ad" stroke="#335c67" stroke-miterlimit="10"/><path d="M1767.1,1289.6c-57.9-9.6-113.4-24.8-166.1-45-26.4-10.1-52-21.5-76.9-34h19.9v-532.2h667.7v561.9h10.4c-12.7,5.1-25.5,9.9-38.5,14.4-25.9,9-52.3,16.7-79.1,23.2-107.3,25.8-221.5,31-337.3,11.8Z" fill="#fdf2b0" stroke="#335c67" stroke-miterlimit="10"/><path d="M1769.5,1275.2c-56.9-9.4-111.5-24.4-163.3-44.3-25.9-9.9-51.1-21.1-75.6-33.4h13.3v-519.2h667.7v548.3h4.9c-12.5,5-25.1,9.7-37.8,14.1-25.5,8.8-51.4,16.4-77.8,22.8-105.5,25.4-217.7,30.4-331.5,11.6Z" fill="#fdf2aa" stroke="#335c67" stroke-miterlimit="10"/><path d="M1771.9,1260.8c-55.9-9.3-109.5-24-160.4-43.5-25.5-9.8-50.2-20.7-74.3-32.8h6.7v-506.1h667.7v527.2h17.8c-6.1,2.6-12.1,5.1-18.3,7.6-12.2,4.9-24.6,9.5-37.1,13.9-25,8.7-50.5,16.1-76.4,22.4-103.6,24.9-213.9,29.9-325.7,11.4Z" fill="#fdf2b0" stroke="#335c67" stroke-miterlimit="10"/><path d="M1774.3,1246.4c-54.9-9.1-107.6-23.5-157.6-42.7-25-9.6-49.3-20.4-73-32.2h.1v-493h667.7v505.9h29.8c-47,21.6-96.3,38.7-147.2,50.9-101.8,24.5-210.1,29.4-319.9,11.2Z" fill="#fdf2b0" stroke="#335c67" stroke-miterlimit="10"/><path d="M1776.7,1232c-53.9-8.9-105.6-23.1-154.7-41.9-24.5-9.4-48.4-20-71.6-31.6-11.6-5.8-23-11.9-34.2-18.3h27.8v-461.7h667.7v492.6h23.7c-46.2,21.2-94.6,38-144.5,50-100,24-206.3,28.9-314.1,11Z" fill="#fdf2ad" stroke="#335c67" stroke-miterlimit="10"/><path d="M1779.1,1217.5c-52.9-8.8-103.7-22.7-151.9-41.2-24.1-9.2-47.5-19.6-70.3-31.1-11.4-5.7-22.6-11.7-33.6-17.9h20.6v-449h667.7v479.3h17.6c-45.3,20.8-92.8,37.3-141.9,49.1-98.1,23.6-202.5,28.3-308.3,10.8Z" fill="#fdf2b0" stroke="#335c67" stroke-miterlimit="10"/><path d="M1781.5,1203.1c-51.9-8.6-101.7-22.3-149-40.4-23.6-9.1-46.7-19.2-69-30.5-11.2-5.6-22.2-11.5-33-17.6h13.4v-436.2h667.7v466h11.5c-44.5,20.4-91.1,36.6-139.2,48.2-96.3,23.1-198.6,27.8-302.5,10.6Z" fill="#fdf2ad" stroke="#335c67" stroke-miterlimit="10"/><path d="M1783.9,1188.7c-50.9-8.4-99.8-21.8-146.1-39.6-23.2-8.9-45.8-18.9-67.7-29.9-11-5.5-21.7-11.3-32.3-17.3h6.2v-423.5h667.7v452.7h5.4c-43.6,20-89.3,35.9-136.5,47.2-94.4,22.7-194.8,27.3-296.7,10.4Z" fill="#fdf2b0" stroke="#335c67" stroke-miterlimit="10"/><path d="M1786.3,1174.3c-99.8-16.5-191.6-52.5-272-103.5h29.7v-392.4h667.7v423.9h31c-10.4,5.4-21,10.6-31.7,15.5-42.8,19.6-87.6,35.2-133.9,46.3-92.6,22.2-191,26.7-290.9,10.2Z" fill="#fdf2b0" stroke="#335c67" stroke-miterlimit="10"/><path d="M1788.6,1159.9c-97.8-16.2-187.8-51.5-266.6-101.4h21.9v-380h667.7v410.9h24.3c-10.2,5.3-20.6,10.3-31.1,15.2-41.9,19.2-85.8,34.5-131.2,45.4-90.7,21.8-187.2,26.2-285.1,10Z" fill="#fdf2aa" stroke="#335c67" stroke-miterlimit="10"/><path d="M1791,1145.4c-95.8-15.9-183.9-50.4-261.2-99.3h14.1v-367.7h667.7v398h17.6c-10,5.2-20.2,10.1-30.4,14.8-41.1,18.8-84.1,33.8-128.5,44.5-88.9,21.4-183.4,25.7-279.3,9.8Z" fill="#fdf2ae" stroke="#335c67" stroke-miterlimit="10"/><path d="M1793.4,1131c-93.9-15.6-180.1-49.4-255.7-97.3h6.2v-355.3h667.7v385h10.9c-9.8,5.1-19.7,9.9-29.8,14.5-40.2,18.4-82.3,33.1-125.9,43.5-87,20.9-179.6,25.1-273.5,9.6Z" fill="#fdf2b1" stroke="#335c67" stroke-miterlimit="10"/><path d="M1795.8,1116.6c-91.9-15.2-176.3-48.3-250.3-95.2-9.3-5.9-18.3-11.9-27.3-18.2h25.7v-324.8h667.7v356.4h32.6c-18.7,10.8-37.9,20.8-57.6,29.8-39.4,18-80.6,32.4-123.2,42.6-85.2,20.5-175.8,24.6-267.6,9.4Z" fill="#fdf2ae" stroke="#335c67" stroke-miterlimit="10"/><path d="M1798.2,1102.2c-89.9-14.9-172.5-47.3-244.9-93.1-9.1-5.7-17.9-11.7-26.7-17.8h17.3v-312.8h667.7v343.8h25.3c-18.3,10.6-37.1,20.3-56.3,29.2-38.5,17.7-78.8,31.7-120.5,41.7-83.3,20-172,24.1-261.8,9.2Z" fill="#fdf2b0" stroke="#335c67" stroke-miterlimit="10"/><path d="M1800.6,1087.8c-87.9-14.6-168.7-46.3-239.5-91.1-17.7-11.2-34.8-23.2-51.2-36h34v-282.2h667.7v331.1h17.9c-17.9,10.4-36.2,19.9-55.1,28.5-37.7,17.3-77.1,31-117.8,40.8-81.5,19.6-168.2,23.5-256,9Z" fill="#fdf2b0" stroke="#335c67" stroke-miterlimit="10"/><path d="M1803,1073.3c-85.9-14.2-164.8-45.2-234-89-17.3-11-34-22.7-50-35.2h25v-270.7h667.7v318.5h10.6c-17.5,10.1-35.4,19.4-53.8,27.9-36.8,16.9-75.4,30.3-115.2,39.8-79.6,19.1-164.4,23-250.2,8.8Z" fill="#fdf2ae" stroke="#335c67" stroke-miterlimit="10"/><path d="M1805.4,1058.9c-83.9-13.9-161-44.2-228.6-87-16.9-10.7-33.2-22.2-48.9-34.4h16v-259.2h667.7v305.8h3.3c-17.1,9.9-34.6,19-52.6,27.2-35.9,16.5-73.6,29.6-112.5,38.9-77.8,18.7-160.5,22.5-244.4,8.5Z" fill="#fdf2b0" stroke="#335c67" stroke-miterlimit="10"/><path d="M1807.8,1044.5c-81.9-13.6-157.2-43.1-223.2-84.9-16.5-10.4-32.4-21.7-47.7-33.6h7.1v-247.6h667.7v278.1h20.6c-8.1,5.2-16.3,10.2-24.6,15.1-16.7,9.7-33.8,18.5-51.3,26.6-35.1,16.1-71.9,28.9-109.8,38-76,18.3-156.7,21.9-238.6,8.3Z" fill="#fdf2ae" stroke="#335c67" stroke-miterlimit="10"/><path d="M1810.2,1030.1c-79.9-13.2-153.4-42.1-217.8-82.8-16.1-10.2-31.6-21.1-46.6-32.8-7.5-5.8-14.8-11.8-21.9-18h20v-218.1h667.7v265.8h12.7c-7.9,5.1-15.9,10-24,14.7-16.2,9.4-33,18.1-50.1,25.9-34.2,15.7-70.1,28.2-107.2,37.1-74.1,17.8-152.9,21.4-232.8,8.1Z" fill="#fdf2b0" stroke="#335c67" stroke-miterlimit="10"/><path d="M1812.5,1015.7c-77.9-12.9-149.5-41-212.3-80.8-31.4-19.9-60.6-42.7-87.2-67.9h31v-188.5h667.7v238.1h27.4c-119.1,85.2-270.6,125-426.5,99.2Z" fill="#fdf2ac" stroke="#335c67" stroke-miterlimit="10"/><path d="M1814.9,1001.2c-75.9-12.6-145.7-40-206.9-78.7-30.6-19.4-59-41.6-85-66.2h20.9v-177.9h667.7v226.2h18.9c-116,83-263.7,121.8-415.6,96.6Z" fill="#fdf2b0" stroke="#335c67" stroke-miterlimit="10"/><path d="M1817.3,986.8c-73.9-12.3-141.9-38.9-201.5-76.6-29.8-18.9-57.5-40.5-82.8-64.5h10.9v-167.3h667.7v214.3h10.4c-113,80.9-256.8,118.6-404.7,94.1Z" fill="#fdf2b0" stroke="#335c67" stroke-miterlimit="10"/><path d="M1819.7,972.4c-72-11.9-138.1-37.9-196.1-74.6-29-18.4-55.9-39.4-80.6-62.7h.8v-156.7h667.7v202.4h1.9c-109.9,78.7-249.9,115.4-393.8,91.6Z" fill="#fdf2b0" stroke="#335c67" stroke-miterlimit="10"/><path d="M1822.1,958c-70-11.6-134.3-36.8-190.6-72.5-28.2-17.8-54.4-38.3-78.3-61-12-11.3-23.4-23.2-34.2-35.6h25v-110.4h667.7v160h32.1c-12.4,10.8-25.3,21-38.7,30.6-106.9,76.5-243,112.2-382.9,89Z" fill="#fdf2b0" stroke="#335c67" stroke-miterlimit="10"/><path d="M1824.5,943.6c-68-11.3-130.4-35.8-185.2-70.4-27.4-17.3-52.8-37.2-76.1-59.3-11.6-11-22.7-22.6-33.2-34.6h13.9v-100.8h667.7v149h22.5c-12,10.5-24.6,20.4-37.6,29.7-103.9,74.3-236.1,109-372,86.5Z" fill="#fdf2ad" stroke="#335c67" stroke-miterlimit="10"/><path d="M1826.9,929.1c-132-21.9-242.6-95.2-314.7-196h31.8v-54.7h667.7v137.9h12.9c-11.7,10.2-23.9,19.8-36.5,28.8-100.8,72.1-229.2,105.8-361.1,84Z" fill="#fdf2b0" stroke="#335c67" stroke-miterlimit="10"/><path d="M1829.3,914.7c-128-21.2-235.3-92.3-305.2-190.1h19.9v-46.2h667.7v126.9h3.2c-11.3,9.9-23.1,19.2-35.4,28-97.8,70-222.2,102.6-350.2,81.4Z" fill="#fdf2b0" stroke="#335c67" stroke-miterlimit="10"/><path d="M1831.7,900.3c-124-20.6-227.9-89.4-295.7-184.1h8v-37.7h667.7v85.6h25.2c-20.1,21.2-42.2,40.4-65.8,57.4-94.7,67.8-215.3,99.4-339.3,78.9Z" fill="#fdf2ad" stroke="#335c67" stroke-miterlimit="10"/><path d="M1834.1,885.9c-120-19.9-220.6-86.5-286.2-178.2-8.2-11.5-15.9-23.3-22.9-35.5l19,6.3h667.7v75.6h14.6c-19.5,20.5-40.8,39.1-63.7,55.5-91.7,65.6-208.4,96.3-328.4,76.4Z" fill="#fdf2b0" stroke="#335c67" stroke-miterlimit="10"/><path d="M1836.4,871.5c-116-19.2-213.3-83.7-276.7-172.3-7.9-11.1-15.3-22.5-22.2-34.3l6.4,13.6h667.7v65.5h4c-18.8,19.9-39.5,37.8-61.6,53.7-88.6,63.4-201.5,93.1-317.5,73.8Z" fill="#fdf2b0" stroke="#335c67" stroke-miterlimit="10"/><path d="M1838.8,857c-112.1-18.6-206-80.8-267.2-166.4-7.7-10.7-14.8-21.8-21.4-33.2v20.9h661.4v25.4h19.2c-8.2,10.5-16.8,20.5-25.9,30.1-18.2,19.2-38.1,36.5-59.5,51.8-85.6,61.3-194.6,89.9-306.6,71.3Z" fill="#fdf2ae" stroke="#335c67" stroke-miterlimit="10"/><path d="M1841.2,842.6c-108.1-17.9-198.7-77.9-257.7-160.5-7.4-10.3-14.3-21-20.7-32v28.3h648.8l29.8-15.1c-27.6,43.5-63.2,81-104.5,110.5-82.6,59.1-187.7,86.7-295.7,68.8Z" fill="#fdf2b0" stroke="#335c67" stroke-miterlimit="10"/><path d="M1843.6,828.2c-104.1-17.3-191.3-75.1-248.2-154.6v4.8h616.2l17.5-22.9c-26.5,41.9-60.9,78-100.6,106.4-79.5,56.9-180.7,83.5-284.8,66.2Z" fill="#fdf2af" stroke="#335c67" stroke-miterlimit="10"/><path d="M1846,813.8c-100.1-16.6-184-72.2-238.7-148.7v13.3h604.4l5.1-30.7c-25.5,40.3-58.6,75-96.8,102.4-76.5,54.7-173.8,80.3-273.9,63.7Z" fill="#fdf2b0" stroke="#335c67" stroke-miterlimit="10"/></g><path d="M2206.6,1012.9c0,100-44.7,189.5-115.2,249.8-39.8,34-75.2,72.4-105.3,114.8l-1.3-.9c-14.6,19.1-103.1,16.8-206.2-6.3-103.6-23.2-185-59-189.4-82.5,0-1,0-1.9-.1-2.8v-.2c-3.1-63.2-12.3-125.9-28.6-187.1-7.7-28.8-11.6-59.1-11-90.5,3-178.9,151.1-323.8,330-323,180.8.8,327.1,147.6,327.1,328.6Z" fill="none" stroke="#335c67" stroke-miterlimit="10"/></g><path d="M2210,1012.9c0,100-44.7,189.5-115.2,249.8-39.8,34-75.2,72.4-105.3,114.8l-1.3-.9c-14.6,19.1-103.1,16.8-206.2-6.3-103.6-23.2-185-59-189.4-82.5,0-1,0-1.9-.1-2.8v-.2c-3.1-63.2-12.3-125.9-28.6-187.1-7.7-28.8-11.6-59.1-11-90.5,3-178.9,151.1-323.8,330-323,180.8.8,327.1,147.6,327.1,328.6Z" fill="#fdf2b0" stroke="#335c67" stroke-miterlimit="10"/><path d="M1600.2,1565.3l3.6,43.5c4.1,49.8,40.9,91.1,90.1,99.5.8.1,1.7.3,2.5.4,45.9,7.3,91.3-15.7,113.4-56.5l21.2-39.1-230.7-47.8Z" fill="#fdf2b0" stroke="#335c67" stroke-miterlimit="10"/><path d="M1713.3,1723.8c-6.3,0-12.7-.5-19-1.5-.9-.1-1.8-.3-2.7-.5-55-9.4-96.8-55.4-101.4-111.9l-3.6-43.5c-.3-4.3,1.3-8.5,4.6-11.3,3.2-2.9,7.6-4,11.8-3.1l230.7,47.8c4.2.9,7.8,3.7,9.6,7.6,1.8,3.9,1.7,8.5-.4,12.3l-21.2,39.1c-21.9,40.4-63.9,65-108.5,65ZM1615.3,1582.4l2.1,25.3c3.6,44,36,79.9,78.8,87.2l2.3.4c39.8,6.3,79.7-13.6,99.2-49.6l12.4-22.9-194.9-40.4Z" fill="#1a2e33"/><path d="M1880.6,1581.7l-295.2-70.5s-19.8,27.9-11.1,53.4c6.3,18.6,66.4,44.7,143.9,63.2,81.5,19.5,134.3,20.5,154-.1,13.1-22.1,8.4-46,8.4-46Z" fill="#fef8c6" stroke="#335c67" stroke-miterlimit="10"/><g opacity=".3"><path d="M1880.6,1581.7l-295.2-70.5s-19.8,27.9-11.1,53.4c6.3,18.6,66.4,44.7,143.9,63.2,81.5,19.5,134.3,20.5,154-.1,13.1-22.1,8.4-46,8.4-46Z" fill="#00007f" stroke="#335c67" stroke-miterlimit="10"/></g><path d="M1819.1,1656.4c-26.9,0-61.3-5.1-104-15.3-33-7.9-141.4-36.3-153.6-72.1-10.8-31.7,11.9-64.3,12.9-65.7,3.2-4.5,8.9-6.7,14.3-5.4l295.2,70.5c5.2,1.2,9.2,5.4,10.2,10.7.2,1.2,5.5,29.2-10,55.6-.5.9-1.2,1.7-1.9,2.5-12.3,12.9-33,19.3-63,19.3ZM1592.2,1526.8c-4.3,8.9-8.7,22.2-4.9,33.3,3.7,8.6,46.9,33.5,134.1,54.3,98.6,23.5,130,13.6,140,4.7,5.2-9.6,6.4-19.7,6.5-26.6l-275.6-65.8Z" fill="#1a2e33"/><path d="M1935,1515.6l-379.3-89.4s-26.1,36.6-15.6,65.9c7.6,21.4,80.8,57.9,180.3,81.3,104.7,24.7,172.9,27.5,199.1,4.6,17.6-24.8,15.5-62.5,15.5-62.5Z" fill="#fef8c6" stroke="#335c67" stroke-miterlimit="10"/><path d="M1856.8,1607.4c-35.1,0-81.1-6.9-139.5-20.6-85.7-20.2-178.5-57.6-190.1-90.1-12.7-35.6,16.1-76.7,17.4-78.4,3.2-4.5,8.9-6.6,14.3-5.4l379.3,89.4c5.9,1.4,10.2,6.5,10.5,12.5,0,1.7,2.2,42.7-18,71.1-.6.9-1.3,1.7-2.2,2.4-14.5,12.7-38,19-71.7,19ZM1562.1,1441.8c-6.5,11.8-14.3,31.3-9.2,45.8,4.4,12.4,66.9,48.2,170.6,72.6,124.1,29.3,169.7,21.2,185.8,8.6,8.8-13.4,11.2-31.3,11.9-42.4l-359.1-84.6Z" fill="#1a2e33"/><path d="M1935,1515.6c-6.6,28-96.8,30.6-201.6,5.9-104.7-24.7-184.3-67.3-177.7-95.3,6.6-28,96.8-30.6,201.6-5.9,104.7,24.7,184.3,67.3,177.7,95.3Z" fill="#fef8c6" stroke="#335c67" stroke-miterlimit="10"/><path d="M1935,1515.6c-6.6,28-96.8,30.6-201.6,5.9-104.7-24.7-184.3-67.3-177.7-95.3,6.6-28,96.8-30.6,201.6-5.9,104.7,24.7,184.3,67.3,177.7,95.3Z" fill="#9e2a2b"/><path d="M1861.2,1552.1c-39.1,0-86.3-6.7-131-17.2-97.7-23-198.2-67.8-187.9-111.7,10.3-43.9,120.3-39.1,218-16.1,51.8,12.2,99.3,29.1,133.9,47.7,40.7,21.8,58.8,43.4,54,64.1-5.6,23.8-40.6,33.3-87,33.3ZM1629.1,1417.1c-37.7,0-58.7,6.3-60.1,12.2-2.6,10.8,53,51.9,167.6,78.9,114.6,27,182.6,15.1,185.1,4.2h0c.5-2.1-5.1-14.8-40.3-33.7-32.5-17.5-77.8-33.5-127.3-45.2-51.7-12.2-94-16.4-125-16.4Z" fill="#1a2e33"/><path d="M1923,1430.6l-309.3-70.1s-20.4,29.4-11,55.9c6.8,19.3,69.9,45.9,151.1,64.3,85.4,19.4,140.6,19.8,161-2,13.4-23.3,8.2-48.2,8.2-48.2Z" fill="#fef8c6" stroke="#335c67" stroke-miterlimit="10"/><path d="M1923,1430.6l-309.3-70.1s-20.4,29.4-11,55.9c6.8,19.3,69.9,45.9,151.1,64.3,85.4,19.4,140.6,19.8,161-2,13.4-23.3,8.2-48.2,8.2-48.2Z" fill="#9e2a2b"/><path d="M1856.9,1508.8c-27.6,0-62.8-4.9-106.2-14.8-34.5-7.8-147.9-36.2-160.9-73.1-11.6-32.7,11.6-66.8,12.6-68.3,3.2-4.6,8.8-6.8,14.2-5.5l309.3,70.1c5.2,1.2,9.3,5.3,10.4,10.5.3,1.2,6,30.3-9.8,57.8-.5.9-1.2,1.8-1.9,2.5-13,13.8-35.1,20.7-67.8,20.7ZM1620.5,1376c-4.5,9.4-9.2,23.9-5,35.8,3.7,9,49,34.6,141.2,55.6,103.8,23.5,136.6,12.6,146.9,3.1,5.6-10.5,6.6-21.5,6.5-28.7l-289.7-65.7Z" fill="#1a2e33"/><path d="M1986.7,1372.6l-397.4-88.9s-23.6,27.7-12.3,58.2c8.2,22.2,85.2,59.5,189.4,82.9,109.7,24.6,181,26.6,208.1,2.4,18.1-26.2,12.2-54.6,12.2-54.6Z" fill="#fef8c6" stroke="#335c67" stroke-miterlimit="10"/><path d="M1906.1,1458.1c-36.1,0-83.3-6.6-142.6-19.9-89.6-20.1-186.9-57.9-199.3-91.5-13.9-37.6,13.6-70.4,14.7-71.8,3.3-3.9,8.4-5.6,13.4-4.5l397.4,88.9c5.2,1.2,9.3,5.3,10.4,10.6.3,1.4,6.8,34.5-14.4,65.2-.6.9-1.3,1.7-2.1,2.4-15.4,13.8-40.8,20.6-77.6,20.6ZM1595.3,1299.1c-4.8,8.2-11.1,23.1-5.5,38.2,4.8,13,70.7,49.9,179.6,74.3,130.5,29.2,178.1,20,194.8,6.6,8.2-12.6,9.8-26,9.7-34.3l-378.6-84.7Z" fill="#1a2e33"/><path d="M1925.4,1407.7c-58.2,0-130.5-15.2-150.8-19.7-32.3-7.2-193.7-45.8-203.3-96.9-.2-1.1-.3-2.2-.3-3.4s0-.7,0-1c0-.6,0-1.2,0-1.8s0-1.9.2-2.7c0-.5.1-.9.2-1.4,0-.4.1-.7.2-1.1,6.4-28.5,50.3-31.3,82.8-30.9,40.5.5,92.8,7.4,147,19.6,54.3,12.1,104.5,28.1,141.3,44.9,29.6,13.5,68.1,34.7,61.8,63.2,0,0,0,0,0,0-.9,4-2.7,7.7-5.2,11-11.5,15-40.3,20.1-73.9,20.1ZM1986.7,1372.6h0,0ZM1611.6,1288.7c16.7,14.2,73.9,42,171,63.7,97.1,21.7,160.7,21,181.8,15.2-16.7-14.2-73.9-42-171-63.7-97.1-21.7-160.7-21-181.9-15.2ZM1571.2,1281.5s0,0,0,0c0,0,0,0,0,0Z" fill="#00007f" stroke="#335c67" stroke-miterlimit="10"/><ellipse cx="1788" cy="1328.2" rx="43" ry="203.6" transform="translate(101.6 2783.2) rotate(-77.4)" fill="#fff" stroke="#335c67" stroke-miterlimit="10"/><ellipse cx="1787.4" cy="1330.8" rx="32.3" ry="203.6" transform="translate(98.5 2784.6) rotate(-77.4)" fill="#9e2a2b"/><path d="M1857.5,1346.7c-.2,0-.5,0-.7,0-7.5-.4-13.3-6.8-13-14.3.2-4.5,6-112.1,54-238.7,1.1-3,2.3-5.9,3.5-8.7l-85.1-24.7c-4,59.4-23.5,141.3-67.2,249-2.8,7-10.8,10.4-17.8,7.5-7-2.8-10.4-10.8-7.5-17.8,46.6-114.7,63.3-193.8,65.9-246.5l-9.5-2.7c-5.9-1.8-56.5-18.2-66.8-52-3.2-10.4-3.7-26.7,11.4-45.3,15.5-19.1,37.8-24.3,56.6-13.1,20,11.8,34.6,41.7,35.6,92.6l96.7,28c23.6-40.4,50.6-49.8,66.4-51.5,21.6-2.3,42.8,7.3,53.9,24.5,8.2,12.7,9.1,27.2,2.3,38.9-19.7,34-81.3,25.6-108.2,20.1-1.6,3.6-3.1,7.4-4.6,11.3-46.4,122.3-52.2,229.3-52.3,230.3-.4,7.3-6.4,13-13.6,13ZM1941.7,1066.9c28.5,4.7,63.2,4.8,70.9-8.5,2.2-3.8-.4-8.5-1.6-10.3-4.6-7.1-15-13.5-28.1-12.1-14.6,1.6-28.8,12.5-41.2,31ZM1760.8,961.1c-6.8,0-12.4,5.7-14.8,8.8-9.2,11.3-7.1,17.9-6.5,20.1,4.6,15.1,32.2,28.8,48.5,33.8l1.6.5c-2.2-37.7-13.2-56-22-61.2-2.3-1.4-4.6-1.9-6.7-1.9Z" fill="#1a2e33"/><path d="M1257.1,623.1c55.6,2.6,110.4,35.2,149.4,73.4,17.2,16.8,42.4,42,42.9,67.6.6,29.2-25.1,42.3-50.8,39.4-52.9-5.9-106.5-37.7-143.5-75-16.1-16.2-38.1-39.7-39.4-63.7-1.3-23.1,18.3-42.7,41.4-41.7Z" fill="#fdf2b0" stroke="#335c67" stroke-miterlimit="10"/><path d="M1405.6,819.8c-2.9,0-5.9-.2-8.8-.5-52.2-5.9-109.4-35.6-153.1-79.6-21.9-22.1-42.5-46.3-44-74-.9-15.4,5-30.7,16-41.9,11.1-11.3,26.5-17.3,42-16.7,0,0,0,0,0,0,53.6,2.5,111.8,30.9,159.8,77.9,17.6,17.2,47,46.1,47.7,78.6.3,16.3-5.4,30.3-16.7,40.6-11,10-26.3,15.5-43,15.5ZM1255.4,639c-6.3,0-12.4,2.6-17,7.2-4.7,4.8-7.2,11.2-6.9,17.7,1.1,19.4,23.9,42.3,34.8,53.3,38.1,38.4,89.5,65.4,134,70.4,10.8,1.2,20.8-1.3,26.8-6.8,4.4-4,6.4-9.4,6.3-16.4-.4-19.5-25-43.6-38.1-56.5-41.8-41-93.7-66.7-138.9-68.8-.3,0-.6,0-.9,0Z" fill="#1a2e33"/><path d="M1646.2,324.3c46.9,30.1,78,85.7,92.6,138.3,6.4,23.2,15.7,57.6,3.3,80-14.1,25.5-42.9,24.1-63.7,8.7-42.8-31.6-73.4-85.9-86.8-136.7-5.8-22.1-13.1-53.4-2.3-74.9,10.4-20.7,37.2-27.8,56.7-15.4Z" fill="#fdf2b0" stroke="#335c67" stroke-miterlimit="10"/><path d="M1709.7,578.3c-13.7,0-28.1-4.9-40.7-14.2-42.2-31.2-76.9-85.6-92.7-145.5-7.9-30.1-13.6-61.4-1.1-86.1,7-13.8,19.7-24.1,34.8-28.2,15.3-4.2,31.6-1.8,44.7,6.6,0,0,0,0,0,0,45.2,29,81.4,82.7,99.4,147.4,6.6,23.7,17.6,63.4,1.9,91.9-7.9,14.3-19.9,23.6-34.7,26.8-3.8.8-7.7,1.2-11.7,1.2ZM1625.1,334.1c-2.2,0-4.4.3-6.6.9-6.5,1.8-11.9,6.1-14.8,11.9-8.8,17.4-.5,48.6,3.4,63.6,13.8,52.3,44.8,101.4,80.8,128,8.7,6.4,18.7,9.3,26.6,7.5,5.8-1.3,10.3-4.9,13.7-11.1,9.4-17.1.2-50.2-4.7-68-15.7-56.4-47.8-104.7-85.8-129.1-3.7-2.4-8.1-3.6-12.6-3.6Z" fill="#1a2e33"/><path d="M2284,453.8c-11.8,54.4-53.1,103-97.3,135.1-19.5,14.1-48.5,34.8-73.8,31-28.9-4.3-37.5-31.8-30.4-56.7,14.7-51.2,54.9-98.7,97.8-129,18.7-13.2,45.5-30.9,69.4-28.2,23,2.6,39.1,25.2,34.2,47.8Z" fill="#fdf2b0" stroke="#335c67" stroke-miterlimit="10"/><path d="M2119.1,636.3c-2.8,0-5.6-.2-8.4-.6-16.1-2.4-29-10.4-37.3-23.2-9.4-14.7-11.7-34.2-6.1-53.6,14.5-50.5,53.4-101.9,104-137.6,25.4-17.9,52.8-34.1,80.3-31.1,15.3,1.7,29.4,10,38.6,22.8,9.3,12.8,12.7,29,9.4,44.2,0,0,0,0,0,0-11.4,52.4-49.1,105.1-103.5,144.6-18.2,13.2-47.6,34.5-77,34.5ZM2244.9,421.7c-18.9,0-43.2,17.1-55.2,25.6-44.2,31.2-79.4,77.3-91.7,120.4-3,10.4-2.1,20.7,2.3,27.6,3.2,5,8.2,7.9,15.1,8.9,19.3,2.8,47.1-17.3,62.1-28.2,47.4-34.4,81.4-81.3,91.1-125.5,1.4-6.5-.1-13.3-4.1-18.9-3.9-5.5-9.9-9-16.3-9.7-1-.1-2.1-.2-3.2-.2ZM2284,453.8h0,0Z" fill="#1a2e33"/><path d="M2561.1,841.5c-37,41.6-96.8,63.8-151,70.1-23.9,2.8-59.3,6.6-79.5-9.1-23.1-17.9-17.1-46.1,1.3-64.3,37.9-37.4,96.3-59.2,148.5-64.5,22.7-2.3,54.8-4.6,74.3,9.4,18.8,13.5,21.7,41.1,6.4,58.4Z" fill="#fdf2b0" stroke="#335c67" stroke-miterlimit="10"/><path d="M2376.1,930c-19.4,0-40-3.1-55.2-14.9-12.9-10-20.2-23.3-21.1-38.5-1-17.4,6.6-35.5,20.9-49.7,37.4-36.9,96.5-62.7,158.1-69,31-3.2,62.7-3.9,85.2,12.3,12.5,9,20.7,23.1,22.5,38.8,1.8,15.7-3.1,31.5-13.4,43.2,0,0,0,0,0,0-35.6,40.1-94.3,67.6-161,75.3-10,1.2-22.6,2.6-35.9,2.6ZM2508.8,787.8c-10.3,0-20.1,1-26.8,1.7-53.8,5.5-107.1,28.5-138.9,60-7.7,7.6-12,17-11.5,25.1.4,5.9,3.2,10.9,8.8,15.2,15.4,12,49.6,8,67.9,5.9,58.2-6.8,110.8-31,140.9-64.8,4.4-5,6.4-11.7,5.6-18.5-.8-6.7-4.2-12.7-9.4-16.5-8.9-6.4-23.1-8.1-36.6-8.1ZM2561.1,841.5h0,0Z" fill="#1a2e33"/><path d="M1925.9,1405.3c-60.9,0-138.1-16.7-150.8-19.5-19.6-4.4-192-44.4-201.6-95.1-.2-1-.3-2-.3-2.9s0-.8,0-1.2c0-.4,0-.9,0-1.3-3.1-63.4-12.6-125.1-28.1-183.4-8.2-30.8-12.1-62.7-11.6-94.9,3.1-187,157.5-338.6,344.5-338.6s1,0,1.6,0c189.1.9,343,155.4,343,344.6s-44,196.2-120.7,261.9c-39.3,33.6-73.8,71.2-102.7,111.9-2.1,3-5.3,5.2-8.8,6.2-13.6,9.2-37.4,12.5-64.4,12.5ZM1605.1,1285.2c5.9,11.4,64.3,44.2,177,69.4,114.1,25.5,181.3,20.2,190.3,11.9,1.4-1.8,3.1-3.2,4.9-4.2,29.5-40.6,64.4-78.2,103.7-111.9,69.6-59.6,109.6-146.2,109.6-237.6,0-171.6-139.6-311.9-311.2-312.7-.5,0-1,0-1.4,0-169.7,0-309.8,137.6-312.6,307.3-.5,29.2,3,58.2,10.5,86.1,16.1,60.6,25.9,124.6,29.2,190.4,0,0,0,0,0,0,0,.4,0,.8,0,1.2Z" fill="#1a2e33"/><g opacity=".2"><path d="M2158.1,1113.3c-10.6,29.9-22.7,64-53.5,94.9-22.5,22.5-38.5,26.9-68.4,61.6-9.3,10.7-12.3,15.6-36.3,45.4-15.2,18.9-27.9,34.2-36.4,44.4-73.8,2.8-133.7-4.7-175.7-12.5-69.8-13-105.5-29.8-126-41-19.5-10.6-34.7-21.3-45.2-29.3,53.7,3.1,97.4-.8,127.1-4.8,45-6.2,215.1-31.7,331.3-157.1,30.2-32.6,44-58.2,50.1-70.6,31-62.8,30.3-123.2,27.3-156,10.4,28.6,41.4,124.3,5.7,225Z" fill="#e09f3e"/></g><g opacity=".7"><path d="M1620.3,922.2c-6.2-53.8,43.8-101.3,59.7-116.3,16.6-15.7,34.3-25.7,69.9-45.8,20.6-11.6,32.1-15.2,46.6-15.1,16.5.2,33.9,9.5,38.8,25.3,5.4,17.6-6.2,36.4-21.2,47-15.1,10.5-33.3,15.3-49.9,23.3-24.9,11.9-46.2,31.3-60.4,54.9-11.9,19.8-10.5,28.3-25,41.8-3.1,2.9-26.4,24.2-42.9,16.6-12.5-5.7-14.7-25.1-15.5-31.7Z" fill="#fff" stroke="#335c67" stroke-miterlimit="10"/></g><g opacity=".7"><path d="M1873.5,732.3c-9.6,6.3-17.2,18.7-14.5,32.3,2.9,14.1,15.5,23.3,27.4,24.1,13.1,1,26.1-6.4,33.4-17.3,1.6-2.4,3.5-5.2,4.4-9.4,2.3-11.4-5-23.7-14.8-30-10.5-6.8-24.9-7-35.9.3Z" fill="#fff" stroke="#335c67" stroke-miterlimit="10"/></g></svg>